<?xml version="1.0" encoding="UTF-8"?>
<svg width="43px" height="35px" viewBox="0 0 43 35" version="1.1" xmlns="http://www.w3.org/2000/svg" xmlns:xlink="http://www.w3.org/1999/xlink">
    <!-- Generator: Sketch 55.2 (78181) - https://sketchapp.com -->
    <title>job</title>
    <desc>Created with Sketch.</desc>
    <g id="Page-1" stroke="none" stroke-width="1" fill="none" fill-rule="evenodd">
        <g id="CAREER" transform="translate(-405.000000, -844.000000)" fill="#0085C3">
            <g id="job" transform="translate(405.000000, 844.000000)">
                <path d="M4.67572202,32.6883574 C3.95297834,32.6883574 2.98384477,32.2088448 2.5883574,31.5726534 C2.50875451,31.4450361 2.25162216,30.9775271 2.25162216,30.8265343 L2.25162216,15.3703069 C2.25162216,14.943231 2.24909747,13.2305054 2.40830325,12.9297834 C2.66606498,12.4452166 3.33068592,11.8576715 3.84684116,11.683935 C4.38763538,11.5013538 5.31128159,11.5165162 5.97463899,11.5165162 C5.97463899,13.4099278 5.9316787,15.1637184 5.9316787,17.0583935 L5.93420578,31.1323105 C5.93294224,31.4324007 5.68971119,31.8809567 5.54061372,32.1241877 C5.47617329,32.2290614 5.32897112,32.4211191 5.22788809,32.5045126 C5.10469314,32.6062274 4.88673285,32.6883574 4.67572202,32.6883574 L4.67572202,32.6883574 Z M21.1598375,-5.68434189e-14 L21.2154332,-5.68434189e-14 C24.5176895,0.000631768953 27.6904332,0.0473826715 31.0002708,0.0435920578 C31.4538809,0.0429602888 31.7470217,0.0884476534 32.2126354,0.0865523466 C33.1274368,0.0827617329 33.7194043,0.476353791 34.3707581,1.00198556 C34.6809567,1.25216606 35.0398014,1.64954874 35.2287004,2.00586643 C35.7688628,3.02364621 35.7625451,3.75460289 35.7625451,5.10911552 L35.7625451,18.4438628 C35.7625451,18.5759025 35.6128159,18.6523466 35.5212094,18.7224729 C35.207852,18.9625451 33.7465704,20.2109206 33.5545126,20.2627256 C33.5545126,16.518231 33.5109206,12.8937726 33.5109206,9.13537906 L33.4685921,4.97833935 C33.4698556,4.68709386 33.4256318,4.58537906 33.4231047,4.33140794 C33.4199458,4.10270758 33.4382671,3.87590253 33.4073105,3.65415162 C33.3618231,3.32752708 33.3877256,3.325 33.2215704,3.10388087 C32.8355596,2.58962094 32.517148,2.33375451 31.9100181,2.33691336 C30.966787,2.34196751 30.1448556,2.29458484 29.1814079,2.29458484 C27.3012635,2.29458484 11.3762635,2.2465704 10.8923285,2.3198556 C10.4121841,2.39250903 9.39819495,2.283213 8.97933213,2.57129964 C8.81823105,2.68249097 8.54530686,2.9566787 8.47202166,3.14620939 C8.25595668,3.70279783 8.26922383,6.37138989 8.26922383,7.27355596 L8.22626354,20.1761733 C8.22626354,21.5856498 8.26922383,23.0627256 8.22752708,24.4639892 C8.22120939,24.6851083 8.18203971,24.7299639 8.18140794,24.9801444 L8.18267148,30.9137184 C8.18267148,31.6244585 8.1333935,32.0698556 7.83646209,32.6883574 C14.1288809,32.6883574 20.4212996,32.6883574 26.7137184,32.6883574 L30.0475632,32.6889892 C30.2377256,32.6782491 30.2288809,32.6498195 30.4354693,32.6441336 C30.7462996,32.634657 31.0786101,32.6453971 31.3913357,32.6472924 C31.9681408,32.6498195 32.8519856,32.0073105 33.1400722,31.5814982 C33.2695848,31.390704 33.3851986,31.1891697 33.4382671,30.9269856 C33.5494585,30.376083 33.5109206,28.7916065 33.5109206,28.1857401 C33.8388087,28.0120036 35.4371841,26.5728339 35.7189531,26.4970217 C35.8042419,26.8615523 35.7840253,29.3311372 35.7638087,30.0058664 C35.7568592,30.242148 35.716426,30.3628159 35.7189531,30.6534296 C35.7265343,31.5214801 35.4788809,32.1690433 35.0360108,32.8273466 C34.8199458,33.1482852 34.6518953,33.299278 34.3878159,33.5652527 C33.9405235,34.0150722 33.3100181,34.3998195 32.6643502,34.6556859 C32.0509025,34.898917 32.123556,34.942509 31.5195848,34.9399819 L15.9761733,34.9399819 C15.0032491,34.9399819 14.166787,34.9829422 13.2191336,34.9829422 L13.1768051,34.9829422 C10.5796029,34.9829422 8.02472924,34.926083 5.45469314,34.9406137 C5.16344765,34.9418773 5.06173285,34.8976534 4.80776173,34.8951264 C3.81651625,34.8831227 3.30794224,34.849639 2.48222022,34.4061372 C1.9148917,34.1016245 1.30712996,33.6360108 0.926805054,33.1470217 C0.631768953,32.7679603 0.00126353791,31.6964801 -5.68434189e-14,31.2605596 L-5.68434189e-14,13.9361913 C0.00126353791,12.2999097 0.49467509,11.2827617 1.72599278,10.2984657 C3.04575812,9.24277978 4.38068592,9.26552347 5.97463899,9.26552347 L5.97463899,4.50261733 C5.97463899,3.65478339 6.03402527,3.10830325 6.3265343,2.3868231 C6.51543321,1.92057762 6.99431408,1.26859206 7.37779783,0.970397112 C7.78655235,0.652617329 8.47644404,0.198375451 9.00965704,0.133935018 C9.42599278,0.0840252708 11.0047834,0.0865523466 11.4299639,0.0865523466 C11.8962094,0.0865523466 12.1994585,0.0423285199 12.6423285,0.0429602888 L18.790704,0.0435920578 C19.5968412,0.0435920578 20.3195848,0.000631768953 21.1598375,-5.68434189e-14 Z" id="Shape"></path>
                <path d="M25.3282491,26.8868231 C25.5361011,26.8312274 26.2891697,26.165343 26.50713,25.9878159 L30.3451264,22.8978339 C30.4765343,22.7929603 30.6009928,22.7032491 30.7292419,22.5895307 L31.3047834,22.1258123 C31.3774368,22.0714801 31.4759928,22.0310469 31.4759928,21.907852 L31.4759928,13.7681408 C30.9768953,13.7681408 30.6382671,13.7245487 30.1341155,13.7245487 C29.4625451,13.7245487 25.9568592,13.6948556 25.5708484,13.751083 C25.3699458,13.7807762 25.3465704,13.7289711 25.3238267,13.9368231 L25.3282491,26.8868231 L25.3282491,26.8868231 Z" id="Path"></path>
                <path d="M28.3158845,25.9777076 C28.3607401,26.1463899 28.4725632,26.2379964 28.5666968,26.375722 C28.6709386,26.5298736 28.7537004,26.6183213 28.8661552,26.7693141 C29.0683213,27.0422383 29.2698556,27.2797834 29.4789711,27.5419675 C29.616065,27.7144404 30.5814079,28.9451264 30.7399819,29.0518953 C31.3666968,28.6324007 33.5943141,26.7566787 34.4446751,26.0888989 L42.2021661,19.775 C42.4194946,19.5816787 42.4296029,19.3536101 42.4302347,19.0920578 L42.4302347,19.0490975 C42.4289711,18.656769 41.8098375,17.9643502 41.5527076,17.6756318 C40.9411552,16.9895307 40.50713,16.0557762 39.3029783,17.048917 C39.0483755,17.2586643 38.8209386,17.4393502 38.5581227,17.6459386 C38.0501805,18.0445848 37.5915162,18.4166968 37.0911552,18.8203971 L33.7844765,21.4883574 C33.6537004,21.5944946 33.5538809,21.683574 33.4306859,21.7840253 C32.6738267,22.4 31.1626354,23.567509 30.5125451,24.1481047 L28.3158845,25.9777076 Z" id="Path"></path>
                <path d="M23.1631769,8.91931408 L22.6868231,8.91931408 L22.6868231,8.18267148 C23.01787,8.18267148 23.4443141,8.15803249 23.7450361,8.25090253 C23.9598375,8.31723827 23.9383574,8.40063177 24.0293321,8.57247292 C23.8145307,8.81949458 23.693231,8.91931408 23.1631769,8.91931408 L23.1631769,8.91931408 Z M23.458213,7.18700361 C23.2800542,7.28429603 22.8712996,7.28176895 22.659657,7.21416968 C22.651444,7.01768953 22.6154332,6.68601083 22.6868231,6.54512635 C23.0722022,6.54891697 23.4462094,6.58240072 23.8126354,6.66768953 L23.8126354,7.01389892 C23.6509025,7.12256318 23.6388989,7.10866426 23.458213,7.18700361 Z M22.1245487,10.1285199 C22.6261733,10.1398917 23.3703971,10.1689531 23.8537004,10.1291516 C24.5745487,10.0697653 25.2991877,9.90740072 25.558213,9.23519856 C25.648556,9.00081227 25.656769,8.71841155 25.599278,8.47454874 C25.4906137,8.0133574 25.1374549,7.71705776 24.7217509,7.62039711 L24.8430505,7.52436823 C24.9972022,7.41570397 25.098917,7.38222022 25.2252708,7.21416968 C25.3705776,7.01958484 25.45713,6.85911552 25.4609206,6.53880866 C25.46787,5.98853791 25.2132671,5.57788809 24.7053249,5.42815884 C24.0748195,5.24305054 22.0228339,5.32518051 21.1490975,5.32518051 L21.1295126,10.15 L22.1245487,10.1285199 L22.1245487,10.1285199 Z" id="Shape"></path>
                <path d="M16.8423285,7.6633574 C16.8423285,7.12698556 17.2814079,6.66768953 17.751444,6.66768953 C18.0692238,6.66768953 18.3231949,6.658213 18.5759025,7.01200361 C18.8690433,7.4232852 18.8747292,8.11570397 18.517148,8.47265343 C17.8468412,9.14296029 16.8423285,8.61859206 16.8423285,7.6633574 L16.8423285,7.6633574 Z M15.1972022,7.6633574 C15.1972022,8.79738267 15.7544224,9.50243682 16.7052347,10.007852 C17.0419675,10.1872744 17.3275271,10.1796931 17.7609206,10.2037004 C18.5139892,10.2447653 19.0364621,10.016065 19.5886282,9.58709386 C20.0201264,9.25225632 20.4358303,8.52951264 20.4358303,7.9666065 C20.4358303,7.07012635 20.3221119,6.51037906 19.624639,5.83312274 C19.2405235,5.45974729 18.249278,5.13122744 17.75713,5.15776173 C16.7930505,5.20956679 15.8763538,5.74783394 15.4416968,6.60893502 C15.2963899,6.89765343 15.1972022,7.24954874 15.1972022,7.6633574 L15.1972022,7.6633574 Z" id="Shape"></path>
                <path d="M29.0083032,8.70261733 C28.8351986,9.35081227 27.1319495,8.44296029 26.9304152,8.44296029 C26.775,8.44296029 26.0933213,9.37229242 26.0642599,9.48158845 C26.3763538,9.56498195 27.0024368,10.174639 28.142148,10.174639 C28.9482852,10.174639 29.5276173,10.2605596 30.165704,9.72987365 C30.4032491,9.53212996 30.6970217,9.03176895 30.6970217,8.61606498 C30.6970217,7.80297834 30.3103791,7.53637184 29.7139892,7.30388087 C29.4094765,7.1851083 29.151083,7.12509025 28.809296,7.03980144 C27.5337545,6.72202166 28.1029783,6.49458484 28.2722924,6.49458484 C29.225,6.49458484 29.3955776,6.88438628 29.8744585,6.88438628 C30.0027076,6.40297834 31.2990975,5.83312274 29.6065884,5.37635379 C28.9710289,5.2051444 27.6695848,5.1198556 27.0845668,5.52355596 C26.7497292,5.75478339 26.5576715,5.96579422 26.4148917,6.36886282 C26.1059567,7.23880866 26.5962094,7.87689531 27.4977437,8.1782491 C27.8717509,8.30333935 28.8238267,8.45117329 29.0083032,8.70261733 Z" id="Path"></path>
                <path d="M17.6648917,24.8954874 L17.6648917,25.3712094 L23.8991877,25.3712094 L23.8562274,23.5965704 C21.8592058,23.5719314 19.8994585,23.5055957 17.9188628,23.5908845 C17.5770758,23.6054152 17.7388087,23.8075812 17.7015343,24.1525271 C17.6762635,24.3900722 17.6648917,24.5960289 17.6648917,24.8954874 Z" id="Path"></path>
                <path d="M10.0444946,25.3712094 L15.0670578,25.3712094 C15.5156137,25.3712094 15.7929603,25.3282491 16.2358303,25.3282491 L16.2358303,23.5965704 C15.7942238,23.5908845 10.3477437,23.4961191 10.1512635,23.6161552 C10.0034296,23.7064982 10.1032491,24.2529783 10.076083,24.450722 C10.0394404,24.7185921 10.0444946,25.0388989 10.0444946,25.3712094 L10.0444946,25.3712094 Z" id="Path"></path>
                <path d="M11.8336643,6.79720217 L12.9885379,6.79720217 C12.9885379,7.55469314 13.1666968,8.98628159 12.4534296,8.81001805 C12.1811372,8.74305054 12.0472022,8.53519856 11.8633574,8.48592058 C11.659296,8.62238267 11.5556859,8.75568592 11.3686823,8.90099278 C11.1886282,9.03998195 11.0294224,9.17391697 10.9106498,9.35207581 C11.4154332,10.3066787 13.215343,10.5454874 14.1263538,9.71028881 C14.317148,9.53528881 14.6121841,8.92120939 14.4611913,8.52951264 C14.4637184,8.00577617 14.5237365,7.4700361 14.5243682,6.92734657 C14.5243682,6.40803249 14.5237365,5.88871841 14.5256318,5.36940433 L11.8349278,5.36940433 L11.8336643,6.79720217 L11.8336643,6.79720217 Z" id="Path"></path>
                <path d="M17.707852,29.441065 L17.707852,30.3072202 L23.8562274,30.3072202 L23.8991877,28.5319495 L17.6648917,28.5319495 C17.6648917,28.8901625 17.707852,29.074639 17.707852,29.441065 L17.707852,29.441065 Z" id="Path"></path>
                <path d="M10.0880866,29.2679603 L10.0880866,30.3072202 L16.2358303,30.3072202 L16.2794224,28.5319495 L10.0444946,28.5319495 C10.0444946,28.8345668 10.0880866,28.9546029 10.0880866,29.2679603 L10.0880866,29.2679603 Z" id="Path"></path>
                <path d="M10.1045126,14.634296 L10.1038809,15.5187726 L14.0713899,15.4871841 L16.2358303,15.5004513 L16.2358303,13.7681408 C15.65713,13.7681408 15.1302347,13.7245487 14.5041516,13.7245487 C14.0265343,13.7245487 10.3306859,13.6752708 10.1531588,13.7896209 C10.0501805,13.8559567 10.084296,13.9993682 10.0861913,14.1560469 C10.0887184,14.3234657 10.0805054,14.4706679 10.1045126,14.634296 L10.1045126,14.634296 Z" id="Path"></path>
                <path d="M17.7249097,14.3740072 L17.7185921,15.5187726 L21.6911552,15.4865523 L23.8562274,15.5004513 L23.8562274,13.7681408 C23.299639,13.7681408 22.8106498,13.7245487 22.2111011,13.7245487 C21.6267148,13.7245487 18.2890794,13.7018051 17.951083,13.751083 C17.7805054,13.7763538 17.6206679,13.6777978 17.7249097,14.3740072 L17.7249097,14.3740072 Z" id="Path"></path>
                <polygon id="Path" points="17.7211191 19.1369134 17.707852 19.6960289 17.7628159 20.4345668 23.8126354 20.4345668 23.8562274 19.7105596 23.8423285 19.3100181 23.8562274 18.7028881 17.7053249 18.7028881"></polygon>
                <path d="M10.100722,19.006769 L10.0880866,19.6865523 C10.1588448,19.86787 10.1373646,20.2020758 10.1449458,20.4345668 L16.19287,20.4345668 L16.2358303,19.7194043 L16.2212996,19.4401625 L16.2358303,18.7028881 L10.0899819,18.7028881 L10.100722,19.006769 L10.100722,19.006769 Z" id="Path"></path>
                <path d="M25.8911552,30.0039711 C25.8911552,30.5175993 26.2064079,30.523917 26.6271661,30.523917 C27.5520758,30.523917 28.5104693,30.2623646 29.3279783,29.9774368 C29.6691336,29.8586643 29.8163357,29.7594765 30.0905235,29.6148014 C30.0387184,29.3905235 29.7045126,28.9697653 29.5528881,28.7669675 L28.3101986,27.1957581 C28.150361,26.9935921 27.8199458,26.5861011 27.6228339,26.4540614 C27.2399819,26.7099278 26.7813177,27.573556 26.5545126,28.0265343 C26.4711191,28.1939531 26.4325812,28.3038809 26.3529783,28.4744585 C26.1463899,28.9185921 25.8911552,29.4669675 25.8911552,30.0039711 L25.8911552,30.0039711 Z" id="Path"></path>
                <path d="M11.8336643,6.79720217 L11.8349278,5.36940433 L14.5256318,5.36940433 C14.5237365,5.88871841 14.5243682,6.40803249 14.5243682,6.92734657 C14.5237365,7.4700361 14.4637184,8.00577617 14.4611913,8.52951264 C14.5679603,8.4448556 14.5199458,8.55288809 14.5509025,8.40126354 L14.5477437,5.32518051 L11.7768051,5.32518051 L11.7723827,6.62788809 C11.7919675,6.89259928 11.7704874,6.72202166 11.8336643,6.79720217 L11.8336643,6.79720217 Z" id="Path"></path>
                <path d="M16.2358303,19.7194043 L16.19287,20.4345668 L10.1449458,20.4345668 C10.1373646,20.2020758 10.1588448,19.86787 10.0880866,19.6865523 L10.0880866,20.4787906 L16.2358303,20.4787906 L16.2358303,19.7194043 L16.2358303,19.7194043 Z" id="Path"></path>
                <path d="M10.100722,19.006769 L10.0899819,18.7028881 L16.2358303,18.7028881 L16.2212996,19.4401625 C16.3084838,19.3371841 16.2825812,19.3308664 16.2794224,19.0939531 C16.2781588,18.9499097 16.2794224,18.8046029 16.2794224,18.6605596 L10.0444946,18.6605596 C10.0444946,19.0990072 10.0457581,18.9398014 10.100722,19.006769 Z" id="Path"></path>
                <path d="M17.7211191,19.1369134 L17.7053249,18.7028881 L23.8562274,18.7028881 L23.8423285,19.3100181 C23.8991877,19.241787 23.9055054,19.4092058 23.9004513,19.0074007 C23.898556,18.891787 23.8991877,18.7761733 23.8991877,18.6605596 L17.6648917,18.6605596 C17.6648917,18.8823105 17.6276173,19.0238267 17.7211191,19.1369134 Z" id="Path"></path>
                <polygon id="Path" points="23.8562274 19.7105596 23.8126354 20.4345668 17.7628159 20.4345668 17.707852 19.6960289 17.707852 20.4787906 23.8562274 20.4787906"></polygon>
                <path d="M22.1245487,10.1285199 L21.1295126,10.15 L21.1490975,5.32518051 C21.0435921,5.43763538 21.0852888,5.60694946 21.0852888,5.88808664 L21.0852888,10.174639 C21.2583935,10.174639 21.4314982,10.174639 21.6046029,10.174639 C21.806769,10.174639 22.0101986,10.2055957 22.1245487,10.1285199 L22.1245487,10.1285199 Z" id="Path"></path>
                <path d="M21.6911552,15.4865523 L17.7185921,15.5187726 L17.7249097,14.3740072 C17.6250903,14.4877256 17.6648917,14.6785199 17.6648917,14.9369134 C17.6648917,15.1390794 17.6648917,15.3412455 17.6648917,15.5434116 L21.6020758,15.5396209 C21.7138989,15.5105596 21.6210289,15.5446751 21.6911552,15.4865523 L21.6911552,15.4865523 Z" id="Path"></path>
                <path d="M14.0713899,15.4871841 L10.1038809,15.5187726 L10.1045126,14.634296 C10.0375451,14.7107401 10.0419675,14.4889892 10.0444946,15.0670578 C10.0451264,15.2256318 10.0444946,15.3848375 10.0444946,15.5434116 L13.9816787,15.5396209 C14.0935018,15.5105596 14.0012635,15.5446751 14.0713899,15.4871841 L14.0713899,15.4871841 Z" id="Path"></path>
                <path d="M23.458213,7.18700361 L22.6868231,7.18700361 L22.6868231,6.54512635 C22.6154332,6.68601083 22.651444,7.01768953 22.659657,7.21416968 C22.8712996,7.28176895 23.2800542,7.28429603 23.458213,7.18700361 Z" id="Path"></path>
            </g>
        </g>
    </g>
</svg>