<?xml version="1.0" encoding="UTF-8"?>
<svg width="55px" height="55px" viewBox="0 0 55 55" version="1.1" xmlns="http://www.w3.org/2000/svg" xmlns:xlink="http://www.w3.org/1999/xlink">
    <!-- Generator: Sketch 55.2 (78181) - https://sketchapp.com -->
    <title>location</title>
    <desc>Created with Sketch.</desc>
    <g id="Page-1" stroke="none" stroke-width="1" fill="none" fill-rule="evenodd">
        <g id="Contact-Us" transform="translate(-341.000000, -1271.000000)" fill="#0085C3" fill-rule="nonzero">
            <g id="Group-2" transform="translate(341.000000, 1262.000000)">
                <g id="location" transform="translate(0.000000, 9.000000)">
                    <path d="M44.7237534,31.7975384 L43.2754703,31.7975384 C43.1880891,31.5380096 43.0593602,31.2942987 42.8942572,31.0758216 L42.8925384,31.0758216 C42.5902353,30.6861479 42.1815938,30.3923124 41.7159513,30.2297911 L41.7159513,27.9304615 C41.7159513,27.4558554 41.3312017,27.0711111 40.856589,27.0711111 C40.3819764,27.0711111 39.9972268,27.4558554 39.9972268,27.9304615 L39.9972268,30.2361846 C38.8724515,30.6335472 38.1683495,31.7519494 38.296298,32.9379559 C38.4242464,34.1239624 39.3506823,35.0664641 40.5343282,35.214797 C40.642879,35.2287501 40.7521826,35.2360396 40.8616249,35.2366245 C41.9516128,35.2349107 42.9217216,34.5451786 43.281349,33.5162393 L44.7237534,33.5162393 C45.198366,33.5162393 45.5831156,33.131495 45.5831156,32.6568889 C45.5831156,32.1822827 45.198366,31.7975384 44.7237534,31.7975384 Z M41.3836531,33.3366522 C41.0077225,33.6258735 40.4688675,33.5576724 40.1768507,33.1839113 C39.9755712,32.9248983 39.9393385,32.5738817 40.083466,32.2792159 C40.2275935,31.9845502 40.5269273,31.7976621 40.8549563,31.7975384 C40.890876,31.7972679 40.9267706,31.7995134 40.9623765,31.8042586 C41.3075624,31.8474349 41.5927526,32.0942865 41.6849696,32.4297123 C41.7771867,32.7651381 41.658271,33.1230856 41.3836703,33.3366522 L41.3836531,33.3366522 Z M54.7037674,29.6844129 C53.869044,25.9446028 51.4744679,22.740444 48.1242841,20.8804709 L48.1242841,6.01702558 C48.1244348,5.64721978 47.887729,5.31888328 47.536824,5.20215513 L32.0683042,0.0460525583 C32.0453248,0.0380777864 32.0217267,0.0456400701 31.9985411,0.0397621132 C31.8642395,0.0153890271 31.7266442,0.0154239596 31.592355,0.0398652353 C31.5699085,0.0456400701 31.5466197,0.0382840305 31.5244826,0.0460525583 L16.3278821,5.11151085 L1.13126442,0.0460525583 C0.869689209,-0.0441411929 0.580505963,0 0.357494682,0.163542949 C0.133054516,0.324936417 0,0.584481591 0,0.860923009 L0,40.3910427 C0,40.760892 0.236775116,41.0892304 0.58746001,41.2067553 L16.0559799,46.3628579 C16.2325844,46.4210444 16.423197,46.4210444 16.5998015,46.3628579 L29.5448901,42.0537311 C32.2578139,46.3750766 35.5265206,50.3214247 39.2671643,53.7915471 L40.1952754,54.7264344 C40.3751056,54.8981648 40.6130357,54.9958404 40.8616593,55 L40.8935416,54.9982813 C41.8687115,54.957995 44.7388438,51.6296276 45.9271871,50.2013872 C46.4760445,49.5451185 47.0349565,48.9039743 47.5922013,48.2644113 C49.7292514,46.0184407 51.554933,43.4955986 53.0202768,40.7635539 C54.1286602,38.5290153 54.7905746,36.0997523 54.9689494,33.6118162 C55.0537743,32.2967173 54.9646158,30.976175 54.7037846,29.6844129 L54.7037674,29.6844129 Z M15.4685199,44.3554669 L1.71872443,39.7716917 L1.71872443,2.0534436 L15.4685199,6.63635943 L15.4685199,44.3554669 Z M32.6557642,2.0534436 L46.4055596,6.63635943 L46.4055596,20.0361247 C44.0363751,19.0435633 41.4467535,18.6954934 38.8995635,19.0272473 C36.6524356,19.329642 34.5109716,20.1679517 32.6557642,21.4714806 L32.6557642,2.0534436 Z M17.1872443,44.3554669 L17.1872443,6.63635943 L30.9370397,2.0534436 L30.9370397,22.8783231 C27.4256756,26.2469676 25.9573955,31.2212276 27.07663,35.9566742 C27.4559755,37.5322994 28.0107728,39.0604299 28.7306273,40.5124346 L17.1872443,44.3554669 Z M51.4761404,40.0117254 C50.0768903,42.6076937 48.3347047,45.0035903 46.2964722,47.1349327 C45.7325243,47.7828829 45.1652078,48.4340299 44.6062786,49.1020374 C43.9298746,49.9160657 41.8872565,52.1970395 40.9472689,53.0446512 L40.4873727,52.5797255 C35.7172421,47.779394 30.3126615,42.3397057 28.751716,35.5706368 C27.9589564,32.2351109 28.6289285,28.7197958 30.5929683,25.9096646 C32.5823335,23.0608401 35.67906,21.1810487 39.1244758,20.7308236 C39.6792752,20.6576495 40.2382731,20.6208268 40.7978774,20.6208268 C42.8818449,20.6251562 44.9343219,21.1296954 46.7827853,22.0920347 C46.8494091,22.1405934 46.9229177,22.17892 47.0008742,22.2057439 C50.0613983,23.8004868 52.2635641,26.6629436 53.020294,30.0300093 C53.2512222,31.1738598 53.3296706,32.3432521 53.2535937,33.5076973 C53.0889931,35.7705416 52.4852709,37.9796722 51.4761404,40.0117254 L51.4761404,40.0117254 Z M40.8566234,22.3446837 C35.1612717,22.3446837 30.5442768,26.9616152 30.5442768,32.6568889 C30.5442768,38.3521625 35.1612717,42.969094 40.8566234,42.969094 C46.5519752,42.969094 51.16897,38.3521625 51.16897,32.6568889 C51.1627561,26.9641911 46.5493993,22.3508976 40.8566234,22.3446837 Z M40.8566234,41.2503931 C36.110497,41.2503931 32.2630013,37.4029502 32.2630013,32.6568889 C32.2630013,27.9108275 36.110497,24.0633846 40.8566234,24.0633846 C45.6027499,24.0633846 49.4502456,27.9108275 49.4502456,32.6568889 C49.4446672,37.4006377 45.6004373,41.2448149 40.8566234,41.2503931 L40.8566234,41.2503931 Z" id="Shape"></path>
                </g>
            </g>
        </g>
    </g>
</svg>