<?xml version="1.0" encoding="UTF-8"?>
<svg width="41px" height="35px" viewBox="0 0 41 35" version="1.1" xmlns="http://www.w3.org/2000/svg" xmlns:xlink="http://www.w3.org/1999/xlink">
    <!-- Generator: Sketch 55.2 (78181) - https://sketchapp.com -->
    <title>qualification </title>
    <desc>Created with Sketch.</desc>
    <g id="Page-1" stroke="none" stroke-width="1" fill="none" fill-rule="evenodd">
        <g id="CAREER" transform="translate(-407.000000, -1131.000000)" fill="#0085C3">
            <g id="qualification-" transform="translate(407.000000, 1131.000000)">
                <path d="M31.2483547,32.2566634 C30.5299276,32.2566634 30.2477624,31.8186739 29.7286936,31.2993748 L28.8507568,30.420747 C28.7138203,30.2825436 28.6614182,30.2484534 28.5150378,30.1260283 C28.4055117,30.0344686 26.5842218,28.2388615 26.4593781,28.0380059 C25.7962323,26.970385 27.2059065,25.9362784 28.1048042,26.6169299 C28.235176,26.7156301 28.4086213,26.9151037 28.535538,27.0420204 L30.9204673,29.3860645 C31.035176,29.5058407 31.021586,29.5384337 31.2033235,29.5536361 C31.267588,29.3128167 31.4341231,29.3615334 31.7297631,28.9990951 C32.0330043,28.6274432 31.865663,28.9122573 32.139536,28.6432215 C32.2104804,28.5736591 32.2454919,28.5374959 32.3098717,28.453307 L33.0421191,27.6990622 C33.2058901,27.5690359 33.3013656,27.5022376 33.4351925,27.3267193 C33.5913623,27.121948 33.6366239,27.1414116 33.8044258,26.9753373 L34.554179,26.2387134 C34.703669,26.042695 34.7905067,26.0282988 34.9533564,25.8722442 C35.101234,25.7304705 35.1406219,25.6176045 35.2890754,25.4873478 C35.7809641,25.0564988 35.5903587,25.1295163 36.0676209,24.7796315 L36.8283152,24.0090326 C37.1187726,23.7129319 37.8613853,23.7365416 38.0880388,23.8814248 L38.3524679,24.1124548 C38.6327904,24.4105133 38.6777065,24.5494077 38.6777065,24.9133432 C38.6777065,25.4322968 38.2245146,25.7497038 37.9460349,26.0282988 C37.627361,26.347203 37.3416255,26.6330536 37.0229516,26.9519579 L34.2078644,29.6766371 C33.6107108,30.2516782 32.9363936,30.9947516 32.3633103,31.5251069 C32.0605298,31.8053142 31.6197762,32.2566634 31.2483547,32.2566634 Z M23.278743,26.3098881 C23.278743,28.1849622 23.8435341,29.717407 24.8180981,31.2569924 C24.9913129,31.5306351 25.3474169,31.8867391 25.5489635,32.1475979 C25.6962652,32.3380882 26.4896677,33.0836953 26.6692168,33.1891905 C27.0955742,33.4396841 26.9048536,33.4486673 27.6467753,33.8328727 C27.876308,33.9517275 28.0920204,34.1107766 28.3358342,34.2246792 C28.5957716,34.3462981 28.8588187,34.4072228 29.1255512,34.5157124 C30.4369859,35.048947 31.8800592,35.0659921 33.2813261,34.9215696 C33.8630471,34.8615663 33.9447022,34.8893221 34.5683449,34.6775255 C34.7177196,34.6267358 34.8408358,34.6020895 34.9797302,34.5485357 L36.097565,34.0901612 C36.2522376,34.0055117 36.2675551,33.9589832 36.4253373,33.8774432 L37.0748931,33.4911649 C37.1955907,33.4111221 37.257667,33.3653998 37.3651201,33.286048 C37.8801579,32.9055281 37.8624218,32.8464462 38.2552649,32.5548371 C38.3857519,32.4579796 38.3879401,32.4145607 38.4781178,32.282231 L38.9795656,31.7478447 L40.0142481,30.1251069 C40.7198914,28.6045245 40.8389766,27.5424317 40.8389766,25.8594603 C40.8389766,25.103488 40.6629977,24.334156 40.4703192,23.6602994 L40.029796,22.5242679 C39.7604146,22.002435 39.4825107,21.5901283 39.1372326,21.1196611 C39.0935834,21.0601185 39.070204,21.0180816 39.0296644,20.9570418 C38.9347647,20.8138861 38.8994077,20.785209 38.7788253,20.6675058 C38.4098223,20.3069102 38.6117144,20.4269167 37.9914116,19.8784798 C37.2729845,19.2434353 36.7400954,18.8117802 35.8090655,18.4129483 C34.8125041,17.9859 34.8893221,18.0218328 33.8698421,17.7852748 C32.8488648,17.5483712 31.3547713,17.5552813 30.3295327,17.7769826 C29.1157618,18.0394538 29.3869859,17.9943073 28.29564,18.4449654 C27.4570911,18.7911649 26.3890095,19.6164692 25.7888615,20.2167325 C25.1375782,20.8682461 25.0589174,21.0937479 24.6171273,21.7023034 C24.190079,22.2904738 24.2142646,22.4691017 24.0591313,22.7658934 L23.882922,23.1301744 C23.4934189,24.1134913 23.278743,25.2435341 23.278743,26.3098881 Z" id="Shape"></path>
                <path d="M-2.27373675e-13,2.61296479 L-2.27373675e-13,26.4901283 C-2.27373675e-13,27.237463 0.367966436,28.0119776 0.842464627,28.4854393 L1.24141165,28.8071076 C1.67122409,29.1009049 2.27252386,29.3733959 2.83662389,29.3733959 L20.802254,29.3733959 C21.048947,29.3733959 20.8714709,29.1171438 20.7762257,28.6786936 C20.7187562,28.4142646 20.628233,28.0688713 20.622129,27.7966107 L3.78228036,27.7966107 C2.62805199,27.7966107 1.57597894,26.7015795 1.57597894,25.7692827 L1.57597894,3.51405067 C1.57597894,3.218641 1.67813425,2.98611385 1.78466601,2.77685094 C2.09861797,2.15965778 2.84088516,1.57678513 3.55712405,1.57678513 L37.1017275,1.57678513 C37.6651366,1.57678513 38.4053307,2.02053307 38.755561,2.49007897 C39.2586213,3.16405067 39.1729352,3.58326752 39.1729352,4.68532412 L39.1698256,17.0326423 C39.1697104,17.5103653 39.4198585,17.4535867 39.7478611,17.7606285 L40.7489141,18.7412965 L40.7489141,5.18089832 C40.7489141,4.33486344 40.8089174,3.25054294 40.7476473,2.43399144 C40.7010036,1.81150049 40.1286114,1.05633432 39.7457881,0.733514314 C39.1872162,0.262471208 38.4953932,0.000460677854 37.7340079,-7.38964445e-13 L2.8795821,-7.38964445e-13 C2.11704508,0.000460677854 1.62884172,0.22964791 1.11127015,0.6162718 C0.988960184,0.707716354 1.01590984,0.65070747 0.888417243,0.75378414 C0.716469233,0.892563343 0.190375123,1.61433037 0.102731162,1.99496545 L-2.27373675e-13,2.61296479 L-2.27373675e-13,2.61296479 Z" id="Path"></path>
                <path d="M3.96229023,14.1010036 C3.96229023,14.4590655 3.97564988,14.6166173 4.17328068,14.8810464 C4.3071076,15.0601349 4.42239223,15.1772623 4.58051991,15.3296315 C4.68037183,15.4256828 4.70536361,15.4279862 4.80452451,15.5109082 L6.38257651,17.040589 C7.31141823,17.9782988 7.21444554,17.7063837 7.03719974,18.7993419 L6.81653504,19.9752221 C6.74259625,20.4402764 6.76413294,20.5246956 6.63007568,21.1851925 C6.52170122,21.7184271 6.39248108,22.2514314 6.68927279,22.6804376 C6.96360645,23.0770813 7.23333333,23.3365901 7.87966436,23.3365901 C8.41405067,23.3365901 8.61110563,23.1027641 8.95995393,22.9308161 C9.29152682,22.7672754 9.64855216,22.6097236 9.95686081,22.3964297 C10.2333827,22.2052484 10.6517934,22.06359 10.967588,21.8760941 C11.1887134,21.7448009 11.740951,21.4049358 12.0226555,21.4081606 C12.1648898,21.409773 12.8158276,21.7059888 12.9873149,21.8301415 C13.0208292,21.8543271 13.0044752,21.8453439 13.0379895,21.8695295 L15.0540309,22.915844 C15.687463,23.229796 15.8939618,23.4838598 16.6963475,23.237973 C17.1487331,23.099309 17.5153175,22.4831524 17.5153175,22.0300757 C17.5153175,21.714281 17.341642,20.9920533 17.2763409,20.6023198 C17.1920369,20.0993748 17.190079,19.8271142 17.0463475,19.1204344 C16.7408029,17.6192004 16.805413,17.8973346 17.6391247,17.0631622 L19.305051,15.3961994 C20.0255512,14.6713228 20.0368378,14.8387792 20.0368378,13.8307009 C20.0368378,13.5204344 19.6065647,12.996874 19.2718822,12.8841231 C18.7676703,12.7141329 16.2749424,12.3436328 15.5815071,12.2966436 C14.7373149,12.2395196 14.7477953,11.6567621 14.3491938,10.9166831 L13.4929089,9.20549523 C13.2838763,8.78938796 12.96359,7.88392563 12.2022047,7.88392563 C11.7363442,7.88392563 11.6105791,7.83751234 11.1651037,8.15273116 C11.0089339,8.26317868 10.8819019,8.44019414 10.7794011,8.62285291 L9.35049358,11.5631293 C9.13028957,12.0044587 9.05462323,12.2798289 8.32997697,12.2990622 C7.97928595,12.3083909 6.47782165,12.5692498 6.01461007,12.6403093 C5.16707799,12.770566 3.96229023,12.7642317 3.96229023,14.1010036 Z" id="Path"></path>
                <path d="M21.5676703,12.2088845 C21.5676703,12.5375782 21.5516617,12.6809641 21.7642646,12.958177 C21.8536361,13.0746134 22.0607108,13.2450642 22.2431392,13.2450642 L34.3101349,13.2450642 C34.8483218,13.2450642 35.159049,12.3545739 34.9059065,11.9281013 C34.7541132,11.67231 34.4112537,11.4430076 34.0399474,11.4430076 L22.5132116,11.4430076 C21.955561,11.4430076 21.5676703,11.8821487 21.5676703,12.2088845 Z" id="Path"></path>
                <path d="M21.5676703,7.92907206 C21.5676703,8.54062192 21.8893386,8.92022047 22.5132116,8.92022047 L34.0399474,8.92022047 C35.3505758,8.92022047 35.2386311,7.11816387 34.1300099,7.11816387 L22.4231491,7.11816387 C21.9708786,7.11816387 21.5676703,7.46689701 21.5676703,7.92907206 L21.5676703,7.92907206 Z" id="Path"></path>
                <path d="M21.5676703,16.5338434 C21.5676703,16.9415433 21.5804541,17.2438631 22.0556433,17.5322474 C22.152616,17.591099 22.2288582,17.6150543 22.3781178,17.6150543 L25.7551168,17.6150543 C25.9892563,17.6150543 27.0520401,16.9897993 26.1868871,16.0117802 C26.0192004,15.8223264 25.7257486,15.7679664 25.3949819,15.7679664 L22.6483054,15.7679664 C22.3545081,15.7679664 22.1078151,15.820023 21.9394373,15.9597236 C21.8103323,16.066716 21.5676703,16.3244653 21.5676703,16.5338434 L21.5676703,16.5338434 Z" id="Path"></path>
            </g>
        </g>
    </g>
</svg>