<?xml version="1.0" encoding="UTF-8"?>
<svg width="50px" height="37px" viewBox="0 0 50 37" version="1.1" xmlns="http://www.w3.org/2000/svg" xmlns:xlink="http://www.w3.org/1999/xlink">
    <!-- Generator: Sketch 55.2 (78181) - https://sketchapp.com -->
    <title>Plane</title>
    <desc>Created with Sketch.</desc>
    <g id="Page-1" stroke="none" stroke-width="1" fill="none" fill-rule="evenodd">
        <g id="Contact-Us" transform="translate(-1199.000000, -1278.000000)" fill="#0085C3" fill-rule="nonzero">
            <g id="Group-6" transform="translate(1199.000000, 1278.000000)">
                <g id="Plane">
                    <path d="M27.2629706,37 C26.8228469,37 26.4706214,36.7789107 26.1299893,36.5651841 C26.1233495,36.5611398 26.1170259,36.5569918 26.1105969,36.5527401 L20.6135825,32.8674344 C19.0868507,33.8481293 17.5571679,34.8338019 16.029066,35.8184374 L14.9058863,36.5421626 C14.5825387,36.7671925 14.2822723,36.8767002 13.9882241,36.8767002 C13.6902764,36.8767002 13.4156207,36.7601409 13.2150566,36.5483847 C12.942825,36.2613419 12.8288945,35.8302592 12.8670469,35.2312856 L12.8670469,27.2630487 C12.8670469,27.0274414 12.9801343,26.8056262 13.172056,26.6645936 L32.2351248,12.6628587 L9.11366441,24.6578867 C8.8648301,24.7872011 8.56372056,24.7701943 8.33143305,24.613814 L7.59957984,24.1216518 C5.50172009,22.7109112 3.40354415,21.2998596 1.30041472,19.8886005 C0.691661243,19.5255453 -0.0919402278,18.9496969 0.00881606088,18.1159455 C0.119795529,17.1975745 1.24887725,16.8354527 1.64420867,16.7126714 L18.2551897,10.7853625 L47.9250711,0.26682119 C47.9508925,0.257591852 47.9817729,0.246081105 48.015815,0.233325953 C48.3440107,0.110337251 48.6652504,0 48.9870171,0 C49.3533653,0 49.6663843,0.157209842 49.8458696,0.431186361 C50.1618396,0.913808132 49.9076303,1.46518328 49.8240531,1.64634792 C49.8116167,1.67341373 49.7974939,1.69975364 49.7818957,1.72516025 L28.6403596,36.0151571 C28.4777373,36.2904817 28.053001,37 27.2629706,37 Z M26.9558536,35.3120682 C27.0294183,35.3581112 27.1232186,35.4168056 27.1989966,35.458908 C27.2324064,35.4152501 27.2766717,35.351267 27.331371,35.2587662 C27.3336897,35.2547219 27.3361137,35.2507813 27.3385378,35.2467369 L47.927179,1.85364507 L18.7710914,12.1899848 L2.14661999,18.1220638 C2.13650221,18.1255896 2.12638442,18.1290117 2.11616124,18.1322264 C1.89841805,18.1997354 1.75023464,18.2610224 1.65084846,18.309969 C1.74127618,18.3864999 1.88292519,18.4902003 2.10246007,18.6203443 C2.11468573,18.6276034 2.1267006,18.6351735 2.13850469,18.6430547 C4.24774695,20.0583581 6.35214111,21.4736615 8.45611369,22.8885501 L8.81034161,23.1267499 L40.1155102,6.88622662 C40.4659439,6.70454348 40.8995332,6.81840654 41.1111636,7.14807019 C41.322794,7.47773384 41.2409031,7.91203121 40.9234576,8.14525346 L14.3851365,27.6374073 L14.3851365,35.092327 L15.1975104,34.5688473 C16.8677883,33.4926443 18.5398579,32.4151969 20.2080279,31.3443863 C20.4647667,31.1795026 20.7967566,31.182821 21.0501228,31.3526823 L26.9558536,35.3120682 Z" id="Shape"></path>
                </g>
            </g>
        </g>
    </g>
</svg>