<?xml version="1.0" encoding="UTF-8"?>
<svg width="35px" height="35px" viewBox="0 0 35 35" version="1.1" xmlns="http://www.w3.org/2000/svg" xmlns:xlink="http://www.w3.org/1999/xlink">
    <!-- Generator: Sketch 55.2 (78181) - https://sketchapp.com -->
    <title>Place of Work</title>
    <desc>Created with Sketch.</desc>
    <g id="Page-1" stroke="none" stroke-width="1" fill="none" fill-rule="evenodd">
        <g id="CAREER" transform="translate(-413.000000, -1341.000000)" fill="#0085C3">
            <g id="Place-of-Work" transform="translate(413.000000, 1341.000000)">
                <path d="M10.5377546,1.18206019 L24.456412,1.18222222 C24.5667593,1.82210648 24.4837963,8.76037037 24.4837963,10.0296065 L24.4837963,29.9796065 C24.4836343,30.5848148 24.3355324,31.6824537 25.2189583,31.4787731 C25.8393981,31.3356944 25.655162,30.3271759 25.655162,29.7044676 C25.655162,20.1121991 25.7151157,10.3823611 25.6582407,0.807592593 C25.6525694,-0.148912037 25.1465278,0.00956018519 24.276875,0.0102083333 L10.9308565,0.0102083333 C8.84916667,0.0100462963 9.32458333,-0.361828704 9.32458333,5.07645833 L9.32458333,29.5668981 C9.32458333,30.1636806 9.14148148,31.232963 9.67247685,31.4492824 C10.6589583,31.8511343 10.5059954,30.436875 10.5056713,30.1860417 L10.5056713,5.62673611 C10.5056713,4.62729167 10.3789583,1.99208333 10.5377546,1.18206019 Z" id="Path"></path>
                <path d="M28.0221991,33.4193287 C27.9335648,33.0785648 28.1067824,32.8076389 28.328125,32.720463 C28.7345139,32.5605324 28.8288194,32.8261111 29.1699074,32.8484722 C29.824375,32.8915741 29.7384954,32.1272454 30.1837731,31.7584491 C30.6543287,31.368588 31.3125231,31.4541435 31.7091898,31.8344444 C32.0920833,32.2012963 32.0190046,33.0129398 32.7632407,32.8236806 C33.0628472,32.7475231 33.1717361,32.5637731 33.5262731,32.7653472 C33.7762963,32.9072917 33.9078704,33.2490278 33.7145602,33.5658102 C33.4569213,33.9875926 32.4135648,33.8275 31.8441667,33.8275 C31.1333102,33.8275 30.4224537,33.8275 29.7115972,33.8275 C29.0376852,33.8275 28.1677083,33.9794907 28.0221991,33.4193287 L28.0221991,33.4193287 Z M33.8109722,8.20101852 L33.8174537,31.5565509 L32.9456944,31.4807176 C32.4825926,30.9046759 32.0057176,30.349213 30.9500463,30.3296065 C30.0040741,30.3121065 29.1062269,30.9225 28.9007639,31.5081019 C26.0803472,31.3971065 26.2359028,34.9993519 28.6795833,34.9993519 L33.1597454,34.9993519 C34.2664583,34.9993519 34.9891435,34.2492824 34.9891435,33.1441898 L34.9891435,7.75930556 C34.9891435,7.21599537 34.8005324,7.00826389 34.251875,7.00826389 L27.510162,7.00826389 C26.6165278,7.00826389 26.6714583,7.95099537 27.1990509,8.1375 C27.6355787,8.2919213 32.5697685,8.04222222 33.8109722,8.20101852 Z" id="Shape"></path>
                <path d="M1.18108796,28.7413194 C1.06604167,27.3708102 1.46789352,24.8918056 1.86731481,23.6684259 C2.72805556,21.0320833 3.6562037,22.2937037 4.15543981,24.3052315 C4.42701389,25.3997917 4.96173611,28.3999074 4.47578704,29.3727778 C3.72037037,30.8853935 1.33016204,30.5175694 1.18108796,28.7413194 Z M2.31469907,31.4436111 C2.42520833,33.052963 1.96469907,34.95625 2.88604167,34.9962731 C3.8862963,35.0396991 3.40601852,33.1334954 3.51928241,31.4416667 C6.24085648,30.7581944 5.92099537,28.2380324 5.6756713,26.1542361 C5.44865741,24.2282639 4.82222222,21.0396991 2.95166667,21.0034028 C0.177430556,20.9496065 -0.315810185,28.4012037 0.194282407,29.6383565 C0.573125,30.5569444 1.23925926,31.158588 2.31469907,31.4436111 L2.31469907,31.4436111 Z" id="Shape"></path>
                <path d="M15.1161111,31.0767593 L15.1619676,25.6802778 C15.3076389,25.6347454 18.9539583,25.563287 19.6032407,25.62875 C19.8148611,25.6501389 19.5095833,25.6062269 19.726875,25.6519213 L19.8292824,25.7016667 C19.7701389,27.107662 19.8286343,28.9636343 19.8203704,30.4623148 C19.8172917,31.0297685 19.8223148,31.5061574 20.4236343,31.4946528 C21.2270139,31.4790972 20.9931944,30.0805556 20.9931944,28.8788889 C20.9931944,28.0204167 20.9026157,26.4604861 21.0147454,25.685787 C21.5387731,25.6483565 22.8013657,25.7998611 23.1298148,25.5294213 C23.3516435,25.3468056 23.3812963,24.9020139 23.1810185,24.6767824 C22.9809028,24.451875 22.5771065,24.4917361 22.2136574,24.4933565 L12.8568287,24.4936806 C12.5115278,24.4925463 12.0984954,24.4308102 11.8585185,24.6463194 C11.6298843,24.8517824 11.6055787,25.2947917 11.8270833,25.5085185 C12.1124306,25.7838194 13.4628472,25.6752546 13.986713,25.6752546 C13.986713,26.1944213 13.9314583,30.8520139 14.0400231,31.137037 C14.2263657,31.627037 14.97125,31.6536111 15.1161111,31.0767593 Z" id="Path"></path>
                <path d="M0,7.75930556 L0,19.1103241 C0,19.600162 0.294907407,19.9874306 0.812777778,19.7952546 C1.29532407,19.6160417 1.17217593,19.0111574 1.17185185,18.4223148 C1.17023148,15.3696991 1.05469907,10.9400926 1.17979167,8.18902778 C2.05997685,8.14446759 7.49777778,8.23456019 7.80354167,8.13782407 C8.30018519,7.98064815 8.4162037,7.00826389 7.42243056,7.00826389 L0.749421296,7.00826389 C0.181319444,7.00826389 0,7.19168981 0,7.75930556 Z" id="Path"></path>
                <path d="M9.34710648,33.8359259 L24.2080093,33.8359259 C24.5137731,33.836088 25.1509028,33.8785417 25.3714352,33.7544213 C25.6515972,33.5967593 25.7397454,33.193287 25.545787,32.9074537 C25.2398611,32.4569907 23.9225,32.6643981 23.3137269,32.6643981 C22.3308102,32.6643981 8.80055556,32.5943981 8.50726852,32.7173843 C7.94921296,32.9515278 8.1375,34.5676852 8.28203704,34.7621296 C8.44342593,34.9789352 8.87055556,35.09625 9.14131944,34.8632407 C9.39571759,34.6443287 9.3174537,34.2303241 9.34710648,33.8359259 L9.34710648,33.8359259 Z" id="Path"></path>
                <path d="M19.8336574,11.6862731 L20.9850926,11.6791435 L20.965,14.00875 L19.8313889,13.9860648 L19.8336574,11.6862731 Z M19.0322222,10.5494213 C18.5007407,10.7427315 18.6582407,11.5130556 18.6582407,12.1621759 C18.6582407,14.9312269 18.3873148,15.1862731 19.735787,15.1788194 C22.645162,15.1627778 22.1477083,15.7767361 22.1678009,11.4731944 C22.1721759,10.5303009 21.9341435,10.5019444 21.04375,10.5066435 C20.623588,10.508912 19.3222685,10.4439352 19.0322222,10.5494213 L19.0322222,10.5494213 Z" id="Shape"></path>
                <path d="M19.8428935,4.68627315 L20.9812037,4.68108796 L20.9812037,7.01166667 L19.8292824,6.9812037 L19.8428935,4.68627315 L19.8428935,4.68627315 Z M19.0724074,3.55363426 C18.4858333,3.78421296 18.6582407,4.41923611 18.6582407,5.14516204 C18.6582407,5.83381944 18.6609954,6.52247685 18.6569444,7.21113426 C18.6514352,8.1475463 18.8131481,8.18659722 19.7361111,8.18108796 C22.6399769,8.16375 22.1559722,8.78386574 22.167963,4.45601852 C22.1707176,3.48962963 21.9354398,3.50502315 21.0440741,3.50891204 C20.6273148,3.51085648 19.3616435,3.43988426 19.0724074,3.55363426 Z" id="Shape"></path>
                <path d="M4.67719907,11.6789815 L5.82571759,11.6977778 L5.81178241,14.0027546 L4.67314815,14.0003241 L4.67719907,11.6789815 Z M3.85891204,10.570162 C3.33261574,10.8436806 3.49935185,11.5509722 3.49935185,12.2308796 C3.49935185,15.1841667 3.25256944,15.1833565 4.67039352,15.1783333 C5.0762963,15.176875 6.39414352,15.233912 6.66766204,15.1211343 C7.14939815,14.9226389 7.00680556,14.0806944 7.00680556,13.4691667 C7.00680556,10.548287 7.25634259,10.5009722 5.84030093,10.5068056 C5.4324537,10.508588 4.12449074,10.4319444 3.85891204,10.570162 L3.85891204,10.570162 Z" id="Shape"></path>
                <path d="M29.1870833,25.6742824 L30.3146991,25.6820602 L30.318588,27.9886574 L29.1519213,27.9927083 L29.1870833,25.6742824 Z M28.424213,24.5320833 C27.8024769,24.7279861 27.982662,25.3957407 27.982662,26.1271759 C27.9828241,26.8155093 27.9850926,27.5040046 27.9810417,28.1921759 C27.9755324,29.1261574 28.1908796,29.1797917 29.0921296,29.1746065 C31.9964815,29.1582407 31.4708333,29.7303935 31.4922222,25.4370602 C31.4967593,24.5353241 31.268125,24.4889815 30.4004167,24.4931944 C29.9710185,24.495463 28.7356481,24.4340509 28.424213,24.5320833 L28.424213,24.5320833 Z" id="Shape"></path>
                <path d="M29.1613194,11.6773611 L30.31875,11.6921065 L30.3043287,14.0034028 L29.1569444,14.0061574 L29.1613194,11.6773611 L29.1613194,11.6773611 Z M28.3487037,10.570162 C27.8167361,10.8394676 27.982662,11.55 27.982662,12.2308796 C27.9828241,15.1754167 27.7336111,15.1831944 29.1609954,15.1783333 C31.9493287,15.1687731 31.4860648,15.7684722 31.4927083,11.4025463 C31.4941667,10.4567361 31.1965046,10.5030787 30.3307407,10.5068056 C29.9147917,10.50875 28.6243287,10.4304861 28.3487037,10.570162 L28.3487037,10.570162 Z" id="Shape"></path>
                <path d="M14.0029167,11.6791435 L15.1596991,11.6791435 L15.1339352,14.0061574 L13.9985417,14.0063194 L14.0029167,11.6791435 L14.0029167,11.6791435 Z M13.1977546,10.5588194 C12.6649769,10.7853472 12.8234491,11.5675 12.8234491,12.2308796 C12.8234491,14.9396528 12.5525231,15.1848148 13.9573843,15.1784954 C16.7878472,15.1655324 16.3260417,15.7837037 16.3338194,11.4040046 C16.3354398,10.4837963 16.0450694,10.5029167 15.1963194,10.5068056 C14.7549306,10.508912 13.5119444,10.4251389 13.1977546,10.5588194 L13.1977546,10.5588194 Z" id="Shape"></path>
                <path d="M29.1541898,18.6771991 L30.0557639,18.6739583 L30.3205324,18.6934028 L30.2916898,21.0024306 L29.1804398,21.0056713 L29.1543519,20.7613194 L29.1541898,18.6771991 L29.1541898,18.6771991 Z M28.3180787,17.565787 C27.8318056,17.7975 27.982662,18.6326389 27.982662,19.2478935 C27.982662,22.0827315 27.7250231,22.181412 29.1608333,22.1763889 C31.9733102,22.1665046 31.4760185,22.723912 31.4925463,18.4197222 C31.4961111,17.4899537 31.2012037,17.5011343 30.3307407,17.5050231 C29.9005324,17.5069676 28.6113657,17.4259491 28.3180787,17.565787 Z" id="Shape"></path>
                <path d="M19.8296065,18.6865972 L20.9847685,18.6771991 L20.9920602,20.7624537 L20.9475,21.0059954 L19.8331713,20.99125 L19.8296065,18.6865972 Z M18.6582407,18.2160417 L18.6582407,21.4493287 C18.6582407,22.4492593 19.6938194,22.1760648 21.3874306,22.1760648 C21.984375,22.1760648 22.1658565,21.992963 22.1658565,21.380463 L22.1658565,18.2847454 C22.1658565,17.2277778 21.3422222,17.5053472 19.3968056,17.5053472 C18.8862269,17.5053472 18.6582407,17.7226389 18.6582407,18.2160417 Z" id="Shape"></path>
                <path d="M14.0259259,18.6773611 L15.128912,18.676875 C15.154838,18.7243519 15.1718519,18.7227315 15.1929167,18.8359954 C15.1972917,18.8598148 15.2026389,18.965787 15.2028009,18.9680556 L15.1640741,21.004537 C14.8586343,21.0884722 14.2952315,21.0884722 13.9897917,21.004537 L13.9996759,18.7262963 C14.0022685,18.6982639 14.0170139,18.6935648 14.0259259,18.6773611 L14.0259259,18.6773611 Z M12.8234491,18.2847454 L12.8234491,21.4493287 C12.8234491,22.4447222 13.7737963,22.1760648 15.535787,22.1760648 C16.5903241,22.1760648 16.3310648,21.3524306 16.3310648,19.9357407 C16.3310648,17.084213 16.760625,17.5053472 13.549375,17.5053472 C12.972037,17.5053472 12.8234491,17.7121065 12.8234491,18.2847454 L12.8234491,18.2847454 Z" id="Shape"></path>
                <path d="M15.1138426,7.00534722 L14.0411574,7.00486111 C13.9225463,6.86032407 13.960787,6.69407407 13.9630556,6.45263889 L13.9821759,4.685625 C14.2816204,4.58516204 14.8720833,4.58581019 15.172338,4.68497685 C15.2170602,5.08488426 15.1912963,5.49872685 15.1912963,5.901875 C15.1912963,6.13083333 15.2833333,6.87085648 15.1138426,7.00534722 L15.1138426,7.00534722 Z M13.2659722,3.53532407 C12.6547685,3.69736111 12.8234491,4.52034722 12.8234491,5.14516204 C12.8236111,8.02618056 12.5581944,8.18740741 13.9577083,8.18060185 C14.3551852,8.17881944 15.7077083,8.23699074 15.9833333,8.13166667 C16.4712269,7.94516204 16.3310648,7.09916667 16.3310648,6.52101852 C16.3310648,3.7594213 16.6006944,3.50145833 15.2656713,3.50875 C14.8481019,3.51101852 13.5615278,3.45673611 13.2659722,3.53532407 L13.2659722,3.53532407 Z" id="Shape"></path>
                <path d="M4.67087963,18.6870833 L5.82555556,18.6828704 C5.82555556,19.1221528 5.76398148,21.5237037 5.8769213,21.8255787 C5.96960648,22.0734954 6.28039352,22.2570833 6.64011574,22.1251852 C7.1587963,21.9351157 7.00680556,20.9855787 7.00680556,20.3486111 C7.00680556,19.656713 7.05006944,18.8176852 7.00680556,18.1442593 C6.95446759,17.3274306 6.20763889,17.5051852 5.4962963,17.5053472 C4.90664352,17.5055093 3.81078704,17.3285648 3.57097222,17.8030093 C3.40180556,18.1377778 3.44506944,19.4854398 3.67726852,19.6900926 C3.90784722,19.892963 4.33513889,19.8602315 4.52488426,19.6502315 C4.72743056,19.4256481 4.67087963,19.0220139 4.67087963,18.6870833 L4.67087963,18.6870833 Z" id="Path"></path>
                <path d="M17.3395833,28.0346759 C16.5483565,28.2636343 16.9424306,29.3941667 17.705787,29.1259954 C18.3599306,28.8962269 18.1009954,27.8143056 17.3395833,28.0346759 Z" id="Path"></path>
            </g>
        </g>
    </g>
</svg>