<?xml version="1.0" encoding="UTF-8"?>
<svg width="24px" height="41px" viewBox="0 0 24 41" version="1.1" xmlns="http://www.w3.org/2000/svg" xmlns:xlink="http://www.w3.org/1999/xlink">
    <!-- Generator: Sketch 55.2 (78181) - https://sketchapp.com -->
    <title>Phone Copy</title>
    <desc>Created with Sketch.</desc>
    <g id="Page-1" stroke="none" stroke-width="1" fill="none" fill-rule="evenodd">
        <g id="Contact-Us" transform="translate(-850.000000, -1279.000000)" fill="#0085C3" fill-rule="nonzero">
            <g id="Group-5" transform="translate(850.000000, 1274.000000)">
                <g id="Phone-Copy" transform="translate(0.000000, 5.000000)">
                    <g id="Layer_1">
                        <g id="Group">
                            <path d="M1.89473684,41 L22.1052632,41 C23.1498947,41 24,40.1377188 24,39.078125 L24,1.921875 C24,0.86228125 23.1498947,0 22.1052632,0 L1.89473684,0 C0.850105263,0 0,0.86228125 0,1.921875 L0,39.078125 C0,40.1377188 0.850105263,41 1.89473684,41 Z M1.26315789,1.921875 C1.26315789,1.56806758 1.54592542,1.28125 1.89473684,1.28125 L22.1052632,1.28125 C22.4540746,1.28125 22.7368421,1.56806758 22.7368421,1.921875 L22.7368421,39.078125 C22.7368421,39.4319324 22.4540746,39.71875 22.1052632,39.71875 L1.89473684,39.71875 C1.54592542,39.71875 1.26315789,39.4319324 1.26315789,39.078125 L1.26315789,1.921875 Z" id="Shape"></path>
                            <path d="M3.15789474,34.59375 L20.8421053,34.59375 C21.1909167,34.59375 21.4736842,34.3069324 21.4736842,33.953125 L21.4736842,7.046875 C21.4736842,6.69306758 21.1909167,6.40625 20.8421053,6.40625 L3.15789474,6.40625 C2.80908332,6.40625 2.52631579,6.69306758 2.52631579,7.046875 L2.52631579,33.953125 C2.52631579,34.3069324 2.80908332,34.59375 3.15789474,34.59375 Z M3.78947368,7.6875 L20.2105263,7.6875 L20.2105263,33.3125 L3.78947368,33.3125 L3.78947368,7.6875 Z" id="Shape"></path>
                            <ellipse id="Oval" cx="12.6315789" cy="37.15625" rx="1.26315789" ry="1.28125"></ellipse>
                            <path d="M9.47368421,5.125 L14.5263158,5.125 C14.8751272,5.125 15.1578947,4.83818242 15.1578947,4.484375 C15.1578947,4.13056758 14.8751272,3.84375 14.5263158,3.84375 L9.47368421,3.84375 C9.12487279,3.84375 8.84210526,4.13056758 8.84210526,4.484375 C8.84210526,4.83818242 9.12487279,5.125 9.47368421,5.125 Z" id="Path"></path>
                        </g>
                    </g>
                </g>
            </g>
        </g>
    </g>
</svg>